<?xml version="1.0" encoding="utf-8"?>
<!-- Generator: Adobe Illustrator 22.1.0, SVG Export Plug-In . SVG Version: 6.00 Build 0)  -->
<svg version="1.1" id="Layer_1" xmlns="http://www.w3.org/2000/svg" xmlns:xlink="http://www.w3.org/1999/xlink" x="0px" y="0px"
	 viewBox="0 0 96 120" style="enable-background:new 0 0 96 120;" xml:space="preserve">
<style type="text/css">
	.st0{fill:#6AA76F;}
</style>
<title>Artboard 19</title>
<g>
	<path class="st0" d="M10.8,87.3l29.7-29.8L10.8,27.7c-2.4-2.3-2.4-6.1-0.1-8.5s6.1-2.4,8.5-0.1c0,0,0,0,0.1,0.1L49,49l29.8-29.7
		c2.3-2.4,6.1-2.4,8.5-0.1s2.4,6.1,0.1,8.5c0,0,0,0-0.1,0.1L57.5,57.5l29.8,29.8c2.4,2.3,2.4,6.1,0.1,8.5s-6.1,2.4-8.5,0.1
		c0,0,0,0-0.1-0.1L49,66L19.2,95.7C16.8,98,13,98,10.7,95.6C8.5,93.3,8.5,89.6,10.8,87.3L10.8,87.3z"/>
</g>
</svg>
