<svg width="267" height="39" viewBox="0 0 267 39" fill="none" xmlns="http://www.w3.org/2000/svg">
<path d="M0.90625 21.3594C0.90625 19.7969 1.125 18.2031 1.5625 16.5781C2.03125 14.9531 2.65625 13.375 3.4375 11.8438C4.25 10.3125 5.20312 8.85938 6.29688 7.48438C7.42188 6.10938 8.65625 4.92188 10 3.92188C11.375 2.89062 12.8281 2.09375 14.3594 1.53125C15.9219 0.9375 17.5312 0.640625 19.1875 0.640625C19.9062 0.640625 20.8281 0.71875 21.9531 0.875C23.1094 1.03125 24.2188 1.29688 25.2812 1.67188C26.375 2.04688 27.2969 2.54688 28.0469 3.17188C28.8281 3.76562 29.2188 4.48438 29.2188 5.32812C29.2188 5.39062 29.2031 5.45312 29.1719 5.51562C29.1719 5.54688 29.1719 5.59375 29.1719 5.65625C29.1406 5.71875 29.125 5.78125 29.125 5.84375C29.0625 5.9375 28.9062 6.125 28.6562 6.40625C28.4062 6.65625 28.2344 6.8125 28.1406 6.875C28.0781 6.90625 28 6.92188 27.9062 6.92188C27.8125 6.95312 27.7188 6.96875 27.625 6.96875C27.5 6.96875 27.4062 6.95312 27.3438 6.92188C27.2812 6.92188 27.2188 6.90625 27.1562 6.875C27 6.78125 26.625 6.59375 26.0312 6.3125C25.4375 6 24.7969 5.67188 24.1094 5.32812C23.4219 4.98438 22.7812 4.67188 22.1875 4.39062C21.5938 4.07812 21.2188 3.89062 21.0625 3.82812C20.9375 3.82812 20.8125 3.8125 20.6875 3.78125C20.5938 3.78125 20.5 3.78125 20.4062 3.78125C20.3125 3.75 20.2344 3.73438 20.1719 3.73438C18.7031 3.73438 17.2969 4 15.9531 4.53125C14.6094 5.0625 13.375 5.79688 12.25 6.73438C11.125 7.67188 10.1094 8.75 9.20312 9.96875C8.29688 11.1875 7.51562 12.4844 6.85938 13.8594C6.23438 15.2031 5.75 16.5938 5.40625 18.0312C5.09375 19.4375 4.9375 20.8125 4.9375 22.1562C4.9375 23.9062 5.21875 25.4688 5.78125 26.8438C6.34375 28.2188 7.125 29.375 8.125 30.3125C9.125 31.2188 10.3125 31.9062 11.6875 32.375C13.0938 32.8438 14.6094 33.0781 16.2344 33.0781C17.1719 33.0781 18.3281 32.9531 19.7031 32.7031C21.0781 32.4531 22.3906 32.0469 23.6406 31.4844C24.9219 30.9219 26 30.2031 26.875 29.3281C27.75 28.4219 28.1875 27.3125 28.1875 26C28.1875 25.4688 28.1094 25.0625 27.9531 24.7812C27.7969 24.4688 27.5781 24.25 27.2969 24.125C27.0156 23.9688 26.6719 23.8906 26.2656 23.8906C25.8594 23.8594 25.4375 23.8438 25 23.8438C24.3125 23.8438 23.7188 23.9531 23.2188 24.1719C22.7188 24.3906 22.2188 24.6406 21.7188 24.9219C21.25 25.2031 20.7656 25.4531 20.2656 25.6719C19.7969 25.8906 19.2344 26 18.5781 26C17.7656 26 17.125 25.875 16.6562 25.625C16.1875 25.375 15.9531 24.7969 15.9531 23.8906C15.9531 23.0156 16.2656 22.3125 16.8906 21.7812C17.5469 21.2188 18.3125 20.7969 19.1875 20.5156C20.0938 20.2344 21.0312 20.0469 22 19.9531C22.9688 19.8594 23.7656 19.8125 24.3906 19.8125C25.5156 19.8125 26.5625 19.9062 27.5312 20.0938C28.5 20.25 29.3281 20.5625 30.0156 21.0312C30.7344 21.4688 31.2812 22.0938 31.6562 22.9062C32.0312 23.6875 32.2188 24.7031 32.2188 25.9531C32.2188 27.8906 31.6875 29.5781 30.625 31.0156C29.5625 32.4219 28.2188 33.5781 26.5938 34.4844C25 35.3906 23.2656 36.0781 21.3906 36.5469C19.5469 36.9844 17.8281 37.2031 16.2344 37.2031C13.9844 37.2031 11.9062 36.8125 10 36.0312C8.125 35.25 6.51562 34.1562 5.17188 32.75C3.82812 31.3125 2.78125 29.625 2.03125 27.6875C1.28125 25.7188 0.90625 23.6094 0.90625 21.3594ZM35.0312 18.3125C35.0312 18.0312 35.0469 17.75 35.0781 17.4688C35.1094 17.1562 35.1719 16.8906 35.2656 16.6719C35.3594 16.4219 35.5 16.2188 35.6875 16.0625C35.9062 15.9062 36.2031 15.8281 36.5781 15.8281C36.8906 15.8281 37.2344 16.0781 37.6094 16.5781C38.0156 17.0469 38.4219 17.6562 38.8281 18.4062C39.2344 19.125 39.625 19.9219 40 20.7969C40.4062 21.6719 40.75 22.4844 41.0312 23.2344C41.3438 23.9531 41.5938 24.5781 41.7812 25.1094C41.9688 25.6406 42.0781 25.9219 42.1094 25.9531C42.5156 24.8594 42.9688 23.6719 43.4688 22.3906C43.9688 21.1094 44.5781 19.9219 45.2969 18.8281C46.0469 17.7031 46.9219 16.7656 47.9219 16.0156C48.9531 15.2656 50.2031 14.8906 51.6719 14.8906C52.4219 14.8906 53.125 15.0156 53.7812 15.2656C54.4688 15.4844 55.0625 15.8281 55.5625 16.2969C56.0938 16.7344 56.5156 17.2656 56.8281 17.8906C57.1406 18.5156 57.2969 19.2344 57.2969 20.0469C57.2969 20.7344 57.0156 21.2188 56.4531 21.5C55.9219 21.7812 55.3125 21.9219 54.625 21.9219H54.1562L52.1406 19.9062C52.0781 19.9062 52.0312 19.8906 52 19.8594C51.9375 19.8594 51.875 19.8594 51.8125 19.8594C51.7812 19.8281 51.7344 19.8125 51.6719 19.8125C50.5781 19.8125 49.7188 20.125 49.0938 20.75C48.5 21.3438 48.0469 22.0938 47.7344 23C47.4219 23.875 47.2188 24.8125 47.125 25.8125C47.0625 26.7812 47.0312 27.6719 47.0312 28.4844C47.0312 29.1094 47.0938 29.75 47.2188 30.4062C47.3438 31.0312 47.4844 31.6562 47.6406 32.2812C47.7969 32.875 47.9375 33.5 48.0625 34.1562C48.1875 34.7812 48.25 35.4375 48.25 36.125C48.25 37.4375 47.5469 38.0938 46.1406 38.0938C45.3594 38.0938 44.5469 37.6875 43.7031 36.875C42.8594 36.0312 42.0156 34.9688 41.1719 33.6875C40.3594 32.4062 39.5781 31 38.8281 29.4688C38.0781 27.9062 37.4219 26.3906 36.8594 24.9219C36.2969 23.4531 35.8438 22.125 35.5 20.9375C35.1875 19.75 35.0312 18.875 35.0312 18.3125ZM58.9844 24.9688C58.9844 23.2812 59.1875 21.5938 59.5938 19.9062C60 18.2188 60.6406 16.7031 61.5156 15.3594C62.4219 14.0156 63.5781 12.9219 64.9844 12.0781C66.4219 11.2344 68.1562 10.8125 70.1875 10.8125C71.3438 10.8125 72.3594 11.0312 73.2344 11.4688C74.1094 11.875 74.8438 12.4219 75.4375 13.1094C76.0312 13.7969 76.4688 14.6094 76.75 15.5469C77.0625 16.4531 77.2188 17.4062 77.2188 18.4062C77.2188 20 76.8438 21.5469 76.0938 23.0469C75.375 24.5469 74.3906 25.875 73.1406 27.0312C71.9219 28.1562 70.5156 29.0156 68.9219 29.6094C67.3281 30.1719 65.7031 30.2969 64.0469 29.9844C64.0781 30.8906 64.375 31.625 64.9375 32.1875C65.5312 32.7188 66.2344 33.125 67.0469 33.4062C67.8594 33.6875 68.7031 33.875 69.5781 33.9688C70.4531 34.0312 71.2344 34.0625 71.9219 34.0625C72.6406 34.0625 73.3125 34 73.9375 33.875C74.5625 33.75 75.1875 33.6094 75.8125 33.4531C76.4375 33.2969 77.0625 33.1562 77.6875 33.0312C78.3438 32.9062 79.0312 32.8438 79.75 32.8438C80.0312 32.8438 80.3125 32.8594 80.5938 32.8906C80.875 32.9219 81.1406 33 81.3906 33.125C81.6406 33.2188 81.8438 33.3906 82 33.6406C82.1562 33.8594 82.2344 34.1406 82.2344 34.4844C82.2344 35.0781 82.0156 35.5781 81.5781 35.9844C81.1406 36.3594 80.5781 36.6875 79.8906 36.9688C79.2344 37.25 78.5 37.4688 77.6875 37.625C76.875 37.75 76.0781 37.8594 75.2969 37.9531C74.5469 38.0156 73.8438 38.0469 73.1875 38.0469C72.5625 38.0781 72.0938 38.0938 71.7812 38.0938C69.7812 38.0938 67.9844 37.7812 66.3906 37.1562C64.7969 36.5 63.4531 35.6094 62.3594 34.4844C61.2656 33.3281 60.4219 31.9531 59.8281 30.3594C59.2656 28.7344 58.9844 26.9375 58.9844 24.9688ZM63.9531 21.9219C63.9531 23.0156 64.0938 23.8125 64.375 24.3125C64.6875 24.8125 65.4219 25.0625 66.5781 25.0625C67.3906 25.0625 68.1875 24.9219 68.9688 24.6406C69.75 24.3281 70.4531 23.9062 71.0781 23.375C71.7344 22.8438 72.25 22.2188 72.625 21.5C73 20.7812 73.1875 20 73.1875 19.1562C73.1875 18.6875 73.1406 18.2031 73.0469 17.7031C72.9844 17.2031 72.8281 16.75 72.5781 16.3438C72.3281 15.9062 72 15.5625 71.5938 15.3125C71.2188 15.0312 70.7188 14.8906 70.0938 14.8906C69.1562 14.8906 68.2969 15.1094 67.5156 15.5469C66.7656 15.9531 66.125 16.5 65.5938 17.1875C65.0625 17.8438 64.6562 18.5938 64.375 19.4375C64.0938 20.25 63.9531 21.0781 63.9531 21.9219ZM85.1406 24.9688C85.1406 23.2812 85.3438 21.5938 85.75 19.9062C86.1562 18.2188 86.7969 16.7031 87.6719 15.3594C88.5781 14.0156 89.7344 12.9219 91.1406 12.0781C92.5781 11.2344 94.3125 10.8125 96.3438 10.8125C97.5 10.8125 98.5156 11.0312 99.3906 11.4688C100.266 11.875 101 12.4219 101.594 13.1094C102.188 13.7969 102.625 14.6094 102.906 15.5469C103.219 16.4531 103.375 17.4062 103.375 18.4062C103.375 20 103 21.5469 102.25 23.0469C101.531 24.5469 100.547 25.875 99.2969 27.0312C98.0781 28.1562 96.6719 29.0156 95.0781 29.6094C93.4844 30.1719 91.8594 30.2969 90.2031 29.9844C90.2344 30.8906 90.5312 31.625 91.0938 32.1875C91.6875 32.7188 92.3906 33.125 93.2031 33.4062C94.0156 33.6875 94.8594 33.875 95.7344 33.9688C96.6094 34.0312 97.3906 34.0625 98.0781 34.0625C98.7969 34.0625 99.4688 34 100.094 33.875C100.719 33.75 101.344 33.6094 101.969 33.4531C102.594 33.2969 103.219 33.1562 103.844 33.0312C104.5 32.9062 105.188 32.8438 105.906 32.8438C106.188 32.8438 106.469 32.8594 106.75 32.8906C107.031 32.9219 107.297 33 107.547 33.125C107.797 33.2188 108 33.3906 108.156 33.6406C108.312 33.8594 108.391 34.1406 108.391 34.4844C108.391 35.0781 108.172 35.5781 107.734 35.9844C107.297 36.3594 106.734 36.6875 106.047 36.9688C105.391 37.25 104.656 37.4688 103.844 37.625C103.031 37.75 102.234 37.8594 101.453 37.9531C100.703 38.0156 100 38.0469 99.3438 38.0469C98.7188 38.0781 98.25 38.0938 97.9375 38.0938C95.9375 38.0938 94.1406 37.7812 92.5469 37.1562C90.9531 36.5 89.6094 35.6094 88.5156 34.4844C87.4219 33.3281 86.5781 31.9531 85.9844 30.3594C85.4219 28.7344 85.1406 26.9375 85.1406 24.9688ZM90.1094 21.9219C90.1094 23.0156 90.25 23.8125 90.5312 24.3125C90.8438 24.8125 91.5781 25.0625 92.7344 25.0625C93.5469 25.0625 94.3438 24.9219 95.125 24.6406C95.9062 24.3281 96.6094 23.9062 97.2344 23.375C97.8906 22.8438 98.4062 22.2188 98.7812 21.5C99.1562 20.7812 99.3438 20 99.3438 19.1562C99.3438 18.6875 99.2969 18.2031 99.2031 17.7031C99.1406 17.2031 98.9844 16.75 98.7344 16.3438C98.4844 15.9062 98.1562 15.5625 97.75 15.3125C97.375 15.0312 96.875 14.8906 96.25 14.8906C95.3125 14.8906 94.4531 15.1094 93.6719 15.5469C92.9219 15.9531 92.2812 16.5 91.75 17.1875C91.2188 17.8438 90.8125 18.5938 90.5312 19.4375C90.25 20.25 90.1094 21.0781 90.1094 21.9219ZM111.297 22.2031C111.297 21.3906 111.5 20.8125 111.906 20.4688C112.312 20.0938 112.969 19.9062 113.875 19.9062H114.344C114.438 20.4062 114.547 20.9844 114.672 21.6406C114.797 22.2969 114.984 22.9688 115.234 23.6562C115.484 24.3438 115.781 24.9844 116.125 25.5781C116.469 26.1406 116.891 26.5938 117.391 26.9375C117.422 25.8438 117.688 24.7969 118.188 23.7969C118.719 22.7656 119.359 21.8594 120.109 21.0781C120.891 20.2656 121.734 19.5938 122.641 19.0625C123.578 18.5 124.5 18.125 125.406 17.9375H126.438C127.938 17.9375 129.219 18.2812 130.281 18.9688C131.344 19.625 132.219 20.5 132.906 21.5938C133.625 22.6562 134.172 23.875 134.547 25.25C134.922 26.625 135.203 28.0312 135.391 29.4688C135.609 30.875 135.734 32.25 135.766 33.5938C135.828 34.9062 135.859 36.0312 135.859 36.9688H132.438C132.25 35.0938 132.016 33.2969 131.734 31.5781C131.641 30.8906 131.516 30.1719 131.359 29.4219C131.203 28.6406 131.031 27.9219 130.844 27.2656C130.656 26.5781 130.453 25.9531 130.234 25.3906C130.016 24.7969 129.766 24.2969 129.484 23.8906C129.359 23.7656 129.188 23.5938 128.969 23.375C128.781 23.1562 128.578 22.9375 128.359 22.7188C128.141 22.5 127.938 22.3125 127.75 22.1562C127.562 22 127.453 21.9219 127.422 21.9219C126.484 21.6719 125.672 21.8594 124.984 22.4844C124.297 23.0781 123.688 23.8906 123.156 24.9219C122.625 25.9531 122.188 27.125 121.844 28.4375C121.531 29.75 121.266 31.0156 121.047 32.2344C120.828 33.4219 120.672 34.4688 120.578 35.375C120.484 36.25 120.422 36.7812 120.391 36.9688C119.609 37.5312 118.875 37.7031 118.188 37.4844C117.5 37.2344 116.844 36.7344 116.219 35.9844C115.625 35.2344 115.078 34.2969 114.578 33.1719C114.109 32.0469 113.672 30.8594 113.266 29.6094C112.859 28.3281 112.484 27.0469 112.141 25.7656C111.828 24.4844 111.547 23.2969 111.297 22.2031ZM160.047 21.9219C160.047 20.8594 160.188 19.7031 160.469 18.4531C160.781 17.2031 161.203 15.9531 161.734 14.7031C162.266 13.4219 162.906 12.1875 163.656 11C164.406 9.78125 165.25 8.71875 166.188 7.8125C167.125 6.875 168.141 6.14062 169.234 5.60938C170.328 5.04688 171.484 4.76562 172.703 4.76562C173.703 4.76562 174.641 4.90625 175.516 5.1875C176.391 5.4375 177.141 5.82812 177.766 6.35938C178.391 6.89062 178.875 7.5625 179.219 8.375C179.594 9.15625 179.781 10.0938 179.781 11.1875C179.094 11.1875 178.531 11.0156 178.094 10.6719C177.688 10.2969 177.297 9.89062 176.922 9.45312C176.578 9.01562 176.188 8.625 175.75 8.28125C175.344 7.9375 174.812 7.76562 174.156 7.76562C173.188 7.76562 172.25 8.01562 171.344 8.51562C170.469 9.01562 169.641 9.6875 168.859 10.5312C168.109 11.375 167.438 12.3281 166.844 13.3906C166.281 14.4531 165.781 15.5312 165.344 16.625C164.938 17.6875 164.609 18.7344 164.359 19.7656C164.141 20.7969 164.031 21.6875 164.031 22.4375C164.031 24.0625 164.266 25.5938 164.734 27.0312C165.234 28.4375 165.938 29.6719 166.844 30.7344C167.75 31.7656 168.875 32.5781 170.219 33.1719C171.562 33.7656 173.094 34.0625 174.812 34.0625C175.906 34.0625 176.938 33.9062 177.906 33.5938C178.906 33.25 179.859 32.8906 180.766 32.5156C181.703 32.1094 182.625 31.7344 183.531 31.3906C184.438 31.0469 185.344 30.875 186.25 30.875C186.375 30.875 186.547 30.8906 186.766 30.9219C187.016 30.9219 187.234 30.9531 187.422 31.0156C187.641 31.0781 187.828 31.1875 187.984 31.3438C188.141 31.4688 188.219 31.6719 188.219 31.9531C188.219 33.0781 187.781 34.0312 186.906 34.8125C186.062 35.5938 185.047 36.2344 183.859 36.7344C182.672 37.2031 181.438 37.5469 180.156 37.7656C178.875 37.9844 177.828 38.0938 177.016 38.0938C174.641 38.0938 172.422 37.7188 170.359 36.9688C168.297 36.1875 166.5 35.0938 164.969 33.6875C163.438 32.2812 162.234 30.5938 161.359 28.625C160.484 26.625 160.047 24.3906 160.047 21.9219ZM210.344 31.9531C209.156 32.7656 208.125 33.5 207.25 34.1562C206.406 34.7812 205.578 35.3125 204.766 35.75C203.953 36.1875 203.078 36.5156 202.141 36.7344C201.234 36.9531 200.109 37.0625 198.766 37.0625C195.859 37.0625 193.703 36.2969 192.297 34.7656C190.891 33.2031 190.188 30.8906 190.188 27.8281C190.188 26.6406 190.344 25.4062 190.656 24.125C190.969 22.8438 191.422 21.5781 192.016 20.3281C192.641 19.0469 193.375 17.8438 194.219 16.7188C195.062 15.5625 196.016 14.5469 197.078 13.6719C198.141 12.7969 199.266 12.1094 200.453 11.6094C201.672 11.0781 202.953 10.8125 204.297 10.8125C206.547 11.0312 208.312 11.5938 209.594 12.5C210.875 13.375 211.844 14.5156 212.5 15.9219C213.156 17.2969 213.609 18.8438 213.859 20.5625C214.109 22.25 214.297 24 214.422 25.8125C214.578 27.625 214.766 29.4375 214.984 31.25C215.203 33.0625 215.656 34.7344 216.344 36.2656C215.938 37.2969 215.547 38.0156 215.172 38.4219C214.828 38.8594 214.438 38.9375 214 38.6562C213.562 38.375 213.047 37.6875 212.453 36.5938C211.891 35.5 211.188 33.9531 210.344 31.9531ZM194.172 27.9219C194.172 29.7031 194.5 31.0156 195.156 31.8594C195.844 32.6719 197.047 33.0781 198.766 33.0781C200.047 33.0781 201.266 32.8594 202.422 32.4219C203.609 31.9531 204.641 31.3281 205.516 30.5469C206.391 29.7344 207.094 28.7656 207.625 27.6406C208.156 26.5156 208.422 25.2656 208.422 23.8906C208.422 23.3281 208.438 22.5469 208.469 21.5469C208.5 20.5156 208.438 19.5 208.281 18.5C208.125 17.5 207.828 16.6406 207.391 15.9219C206.953 15.1719 206.297 14.7969 205.422 14.7969C203.797 14.7969 202.297 15.2188 200.922 16.0625C199.547 16.875 198.359 17.9219 197.359 19.2031C196.359 20.4844 195.578 21.9062 195.016 23.4688C194.453 25 194.172 26.4844 194.172 27.9219ZM219.297 18.3125C219.297 18.0312 219.312 17.75 219.344 17.4688C219.375 17.1562 219.438 16.8906 219.531 16.6719C219.625 16.4219 219.766 16.2188 219.953 16.0625C220.172 15.9062 220.469 15.8281 220.844 15.8281C221.156 15.8281 221.5 16.0781 221.875 16.5781C222.281 17.0469 222.688 17.6562 223.094 18.4062C223.5 19.125 223.891 19.9219 224.266 20.7969C224.672 21.6719 225.016 22.4844 225.297 23.2344C225.609 23.9531 225.859 24.5781 226.047 25.1094C226.234 25.6406 226.344 25.9219 226.375 25.9531C226.781 24.8594 227.234 23.6719 227.734 22.3906C228.234 21.1094 228.844 19.9219 229.562 18.8281C230.312 17.7031 231.188 16.7656 232.188 16.0156C233.219 15.2656 234.469 14.8906 235.938 14.8906C236.688 14.8906 237.391 15.0156 238.047 15.2656C238.734 15.4844 239.328 15.8281 239.828 16.2969C240.359 16.7344 240.781 17.2656 241.094 17.8906C241.406 18.5156 241.562 19.2344 241.562 20.0469C241.562 20.7344 241.281 21.2188 240.719 21.5C240.188 21.7812 239.578 21.9219 238.891 21.9219H238.422L236.406 19.9062C236.344 19.9062 236.297 19.8906 236.266 19.8594C236.203 19.8594 236.141 19.8594 236.078 19.8594C236.047 19.8281 236 19.8125 235.938 19.8125C234.844 19.8125 233.984 20.125 233.359 20.75C232.766 21.3438 232.312 22.0938 232 23C231.688 23.875 231.484 24.8125 231.391 25.8125C231.328 26.7812 231.297 27.6719 231.297 28.4844C231.297 29.1094 231.359 29.75 231.484 30.4062C231.609 31.0312 231.75 31.6562 231.906 32.2812C232.062 32.875 232.203 33.5 232.328 34.1562C232.453 34.7812 232.516 35.4375 232.516 36.125C232.516 37.4375 231.812 38.0938 230.406 38.0938C229.625 38.0938 228.812 37.6875 227.969 36.875C227.125 36.0312 226.281 34.9688 225.438 33.6875C224.625 32.4062 223.844 31 223.094 29.4688C222.344 27.9062 221.688 26.3906 221.125 24.9219C220.562 23.4531 220.109 22.125 219.766 20.9375C219.453 19.75 219.297 18.875 219.297 18.3125ZM243.25 24.9688C243.25 23.2812 243.453 21.5938 243.859 19.9062C244.266 18.2188 244.906 16.7031 245.781 15.3594C246.688 14.0156 247.844 12.9219 249.25 12.0781C250.688 11.2344 252.422 10.8125 254.453 10.8125C255.609 10.8125 256.625 11.0312 257.5 11.4688C258.375 11.875 259.109 12.4219 259.703 13.1094C260.297 13.7969 260.734 14.6094 261.016 15.5469C261.328 16.4531 261.484 17.4062 261.484 18.4062C261.484 20 261.109 21.5469 260.359 23.0469C259.641 24.5469 258.656 25.875 257.406 27.0312C256.188 28.1562 254.781 29.0156 253.188 29.6094C251.594 30.1719 249.969 30.2969 248.312 29.9844C248.344 30.8906 248.641 31.625 249.203 32.1875C249.797 32.7188 250.5 33.125 251.312 33.4062C252.125 33.6875 252.969 33.875 253.844 33.9688C254.719 34.0312 255.5 34.0625 256.188 34.0625C256.906 34.0625 257.578 34 258.203 33.875C258.828 33.75 259.453 33.6094 260.078 33.4531C260.703 33.2969 261.328 33.1562 261.953 33.0312C262.609 32.9062 263.297 32.8438 264.016 32.8438C264.297 32.8438 264.578 32.8594 264.859 32.8906C265.141 32.9219 265.406 33 265.656 33.125C265.906 33.2188 266.109 33.3906 266.266 33.6406C266.422 33.8594 266.5 34.1406 266.5 34.4844C266.5 35.0781 266.281 35.5781 265.844 35.9844C265.406 36.3594 264.844 36.6875 264.156 36.9688C263.5 37.25 262.766 37.4688 261.953 37.625C261.141 37.75 260.344 37.8594 259.562 37.9531C258.812 38.0156 258.109 38.0469 257.453 38.0469C256.828 38.0781 256.359 38.0938 256.047 38.0938C254.047 38.0938 252.25 37.7812 250.656 37.1562C249.062 36.5 247.719 35.6094 246.625 34.4844C245.531 33.3281 244.688 31.9531 244.094 30.3594C243.531 28.7344 243.25 26.9375 243.25 24.9688ZM248.219 21.9219C248.219 23.0156 248.359 23.8125 248.641 24.3125C248.953 24.8125 249.688 25.0625 250.844 25.0625C251.656 25.0625 252.453 24.9219 253.234 24.6406C254.016 24.3281 254.719 23.9062 255.344 23.375C256 22.8438 256.516 22.2188 256.891 21.5C257.266 20.7812 257.453 20 257.453 19.1562C257.453 18.6875 257.406 18.2031 257.312 17.7031C257.25 17.2031 257.094 16.75 256.844 16.3438C256.594 15.9062 256.266 15.5625 255.859 15.3125C255.484 15.0312 254.984 14.8906 254.359 14.8906C253.422 14.8906 252.562 15.1094 251.781 15.5469C251.031 15.9531 250.391 16.5 249.859 17.1875C249.328 17.8438 248.922 18.5938 248.641 19.4375C248.359 20.25 248.219 21.0781 248.219 21.9219Z" fill="white"/>
</svg>
