<svg xmlns="http://www.w3.org/2000/svg" viewBox="0 0 100 100"><defs><style>.cls-1{fill:#fff;}</style></defs><title>Asset 3</title><g id="Layer_2" data-name="Layer 2"><g id="Layer_1-2" data-name="Layer 1"><path class="cls-1" d="M71.36,16.1V2a2,2,0,0,0-2.13-2H30.8a2,2,0,0,0-2.13,2V16.1H0v4H11.59V92.37A7.82,7.82,0,0,0,19.67,100H80.33a7.82,7.82,0,0,0,8.08-7.63V20.06H100v-4ZM32.94,4H67.09V16.1H32.94ZM84.17,92.37a3.7,3.7,0,0,1-3.81,3.68H19.67a3.68,3.68,0,0,1-3.81-3.68V20.06H84.17Z"/><rect class="cls-1" x="47.88" y="46.33" width="4.27" height="35.03"/><rect class="cls-1" x="62.82" y="46.33" width="4.27" height="35.03"/><rect class="cls-1" x="32.94" y="46.33" width="4.27" height="35.03"/></g></g></svg>