<svg xmlns="http://www.w3.org/2000/svg" viewBox="0 0 400 400"><defs><style>.cls-1{fill:#fff;}</style></defs><title>Asset 3</title><g id="Layer_2" data-name="Layer 2"><g id="Layer_1-2" data-name="Layer 1"><g id="Layer_2-2" data-name="Layer 2"><g id="Layer_1-2-2" data-name="Layer 1-2"><path class="cls-1" d="M316,400H42.16C18.89,400,0,381.6,0,358.94V92.16c0-22.66,18.89-41,42.16-41.06H210.78V67.53H42.16c-14,0-25.27,11-25.3,24.63V358.94c0,13.59,11.34,24.61,25.3,24.64H316c14,0,25.26-11.05,25.29-24.64V160.54h16.86v198.4C358.12,381.6,339.27,400,316,400Z"/><path class="cls-1" d="M99.88,300.53a8.54,8.54,0,0,1-6-2.41,8.12,8.12,0,0,1-2-8.43l34.85-99.59a8.63,8.63,0,0,1,2-3.17L310.88,9.61a34.37,34.37,0,0,1,47.67,0l31.59,30.76a32.25,32.25,0,0,1,0,46.43L208,264.18a9,9,0,0,1-3.26,2L102.52,300.09A9.79,9.79,0,0,1,99.88,300.53Zm42.21-103.47-28.66,82.12,84.31-27.92L378.22,75.19a16.11,16.11,0,0,0,0-23.21L346.63,21.21a17.65,17.65,0,0,0-23.83,0Z"/><polygon class="cls-1" points="128.8 198.55 140.72 186.93 208.09 252.55 196.17 264.16 128.8 198.55"/><polygon class="cls-1" points="295.64 35.98 307.56 24.36 374.93 89.98 363.01 101.59 295.64 35.98"/></g></g></g></g></svg>