<svg xmlns="http://www.w3.org/2000/svg" viewBox="0 0 100 100"><defs><style>.cls-1{fill:#fff;}</style></defs><title>Asset 2</title><g id="Layer_2" data-name="Layer 2"><g id="Layer_1-2" data-name="Layer 1"><path class="cls-1" d="M50,100a50,50,0,1,1,50-50A50.06,50.06,0,0,1,50,100ZM50,2.91A47.09,47.09,0,1,0,97.09,50,47.15,47.15,0,0,0,50,2.91Zm0,88.26A41.17,41.17,0,1,1,91.17,50,41.22,41.22,0,0,1,50,91.17Zm0-79.43A38.26,38.26,0,1,0,88.26,50,38.3,38.3,0,0,0,50,11.74Z"/><path class="cls-1" d="M50,76.83A5.87,5.87,0,0,1,44.13,71V45.59a5.87,5.87,0,1,1,11.74,0V71A5.87,5.87,0,0,1,50,76.83Zm0-34.2a3,3,0,0,0-3,3V71A3,3,0,0,0,53,71V45.59A3,3,0,0,0,50,42.63Z"/><path class="cls-1" d="M50,37.11a5.87,5.87,0,1,1,5.87-5.87A5.87,5.87,0,0,1,50,37.11Zm0-8.82a3,3,0,1,0,3,2.95A3,3,0,0,0,50,28.29Z"/></g></g></svg>