<svg xmlns="http://www.w3.org/2000/svg" viewBox="0 0 100 100"><defs><style>.cls-1{fill:#fff;}</style></defs><title>Asset 4</title><g id="Layer_2" data-name="Layer 2"><g id="Layer_1-2" data-name="Layer 1"><path class="cls-1" d="M50,47.26A16.25,16.25,0,1,1,66.24,31,16.26,16.26,0,0,1,50,47.26Zm0-29.54A13.29,13.29,0,1,0,63.29,31,13.3,13.3,0,0,0,50,17.72Z"/><path class="cls-1" d="M98.52,100h-97a1.46,1.46,0,0,1-1.17-.58,1.45,1.45,0,0,1-.26-1.27L10.6,58.06A1.47,1.47,0,0,1,12,57H29.65a1.47,1.47,0,0,1,1.29.77A212.26,212.26,0,0,0,49.84,85.6,258.53,258.53,0,0,0,68.46,57.71,1.48,1.48,0,0,1,69.74,57H88a1.47,1.47,0,0,1,1.43,1.1L100,98.15A1.48,1.48,0,0,1,98.52,100Zm-95.13-3H96.61L86.84,59.92H70.6A266.37,266.37,0,0,1,51,88.89a1.47,1.47,0,0,1-1.14.56h0a1.45,1.45,0,0,1-1.13-.53,217.55,217.55,0,0,1-20-29H13.16Z"/><path class="cls-1" d="M49.87,89.45a1.45,1.45,0,0,1-1.13-.53A216,216,0,0,1,28.35,59.15C22.07,47.74,18.92,38.27,19,31A31.24,31.24,0,0,1,28.13,9.09a30.77,30.77,0,0,1,43.67,0A32,32,0,0,1,81,31c.15,6.67-3.21,16.15-10,28.18A263.65,263.65,0,0,1,51,88.89a1.47,1.47,0,0,1-1.14.56ZM50,3A28.3,28.3,0,0,0,21.94,31c-.07,6.76,3,15.74,9,26.7A212.26,212.26,0,0,0,49.84,85.6,258.53,258.53,0,0,0,68.46,57.71c6.5-11.56,9.74-20.54,9.6-26.66C77.71,15.29,65.38,3,50,3Z"/></g></g></svg>