<svg xmlns="http://www.w3.org/2000/svg" viewBox="0 0 400 400"><defs><style>.cls-1{fill:#fff;}</style></defs><title>Asset 2</title><g id="Layer_2" data-name="Layer 2"><g id="Layer_1-2" data-name="Layer 1"><g id="Layer_2-2" data-name="Layer 2"><g id="Layer_1-2-2" data-name="Layer 1-2"><path class="cls-1" d="M285.45,64.41V7.91c0-4.37-3.82-7.91-8.54-7.91H123.21c-4.72,0-8.54,3.54-8.54,7.91v56.5H0V80.23H46.36V369.49c0,16.84,14.15,30.51,32.32,30.51H321.32c18.17,0,32.32-13.67,32.32-30.51V80.23H400V64.41ZM131.75,15.82H268.37V64.41H131.75ZM336.69,369.49c0,8.14-6.59,14.69-15.25,14.69H78.68c-8.78,0-15.25-6.55-15.25-14.69V80.23H336.69Z"/><rect class="cls-1" x="191.52" y="185.31" width="17.08" height="140.11"/><rect class="cls-1" x="251.3" y="185.31" width="17.08" height="140.11"/><rect class="cls-1" x="131.75" y="185.31" width="17.08" height="140.11"/></g></g></g></g></svg>