<svg xmlns="http://www.w3.org/2000/svg" viewBox="0 0 512 512"><defs><style>.cls-1{fill:#fff;}</style></defs><title>Asset 1</title><g id="Layer_2" data-name="Layer 2"><g id="Layer_1-2" data-name="Layer 1"><path class="cls-1" d="M.1,496c1.3-9.7,2.3-19.5,4-29.1C17.2,396.4,54,341.3,112.4,299.8c40.4,38.3,88,58.5,143.6,58.4,55.4,0,102.9-20,143.7-58.6,8.1,6.4,16.6,12.5,24.4,19.4,49.2,43.7,78.2,98.2,86.1,163.7.5,4.4,1.2,8.9,1.8,13.3v16H0C.1,506.7.1,501.3.1,496Z"/><path class="cls-1" d="M268.1,0c10.1,2,20.4,3.3,30.2,6.1,60,16.7,104.4,69.8,110.6,131.9,8.6,86.1-54.6,161.7-141.1,168.8-77.9,6.5-149.6-49-162.8-126.1C90.8,98.3,142.3,21.5,224,3.4c6.6-1.5,13.4-2.3,20.1-3.4Z"/></g></g></svg>